<svg width="990" height="289" viewBox="0 0 990 289" fill="none" xmlns="http://www.w3.org/2000/svg">
<rect width="990" height="289" fill="url(#paint0_linear)"/>
<g opacity="0.4">
<path d="M904.942 237.001C899.798 231.702 895.864 225.36 893.444 218.387C893.361 218.551 893.251 218.716 893.169 218.881C893.801 218.744 894.406 218.634 895.039 218.496C895.397 218.414 895.452 217.92 895.149 217.755C892.783 216.492 892.508 212.429 891.986 210.095C891.298 207.048 890.665 204 890.115 200.953C888.96 194.693 888.079 188.379 887.447 182.037C887.227 182.147 887.034 182.284 886.814 182.394C891.408 185.112 895.782 188.159 899.881 191.591C903.567 194.693 907.253 198.015 909.866 202.079C912.672 206.389 914.02 211.605 914.845 216.602C915.781 222.12 915.781 227.749 914.46 233.212C914.323 233.734 915.121 233.953 915.258 233.432C917.321 225.113 916.276 216.245 913.635 208.174C911.077 200.459 905.3 194.886 899.11 189.889C895.369 186.869 891.38 184.123 887.254 181.68C887.007 181.543 886.594 181.707 886.621 182.037C887.282 188.818 888.244 195.544 889.51 202.216C890.143 205.538 890.83 208.86 891.628 212.127C892.151 214.351 892.508 217.261 894.737 218.469C894.764 218.222 894.792 217.975 894.847 217.728C894.214 217.865 893.609 217.975 892.976 218.112C892.756 218.167 892.618 218.414 892.701 218.606C895.177 225.717 899.165 232.169 904.42 237.577C904.75 237.962 905.327 237.385 904.942 237.001Z" fill="white"/>
<path d="M887.529 182.723C897.488 197.109 904.365 213.472 907.666 230.631C907.776 231.153 908.574 230.933 908.464 230.412C905.135 213.17 898.23 196.725 888.217 182.284C887.942 181.872 887.227 182.284 887.529 182.723Z" fill="white"/>
<path d="M890.83 206.389C894.984 207.295 899.358 208.311 902.246 211.689C902.576 212.1 903.182 211.496 902.824 211.112C899.853 207.625 895.342 206.526 891.05 205.593C890.527 205.483 890.307 206.279 890.83 206.389Z" fill="white"/>
<path d="M908.408 198.894C910.389 186.594 918.834 177.04 926.922 168.117C926.702 167.98 926.454 167.843 926.234 167.705C924.336 174.487 928.792 180.774 930.415 187.143C931.296 190.657 931.708 194.281 931.791 197.905C931.846 199.69 931.818 201.502 931.763 203.286C931.736 204.165 931.736 205.071 931.543 205.922C931.268 207.103 929.948 208.942 928.545 207.707C928.38 207.926 928.215 208.146 928.05 208.366C930.47 209.628 929.59 213.252 929.205 215.366C928.71 218.222 927.884 220.94 926.041 223.246C923.373 226.54 919.549 228.984 918.284 233.212C918.119 233.733 918.917 233.926 919.082 233.431C920.65 228.27 926.179 225.799 928.462 221.022C929.645 218.551 930.168 215.641 930.415 212.95C930.608 211.001 930.415 208.668 928.462 207.679C928.077 207.487 927.582 208.009 927.967 208.338C928.82 209.107 930.003 209.107 930.965 208.475C932.038 207.762 932.368 206.444 932.478 205.208C932.919 201.063 932.726 196.697 932.231 192.579C931.736 188.461 930.635 184.59 929.095 180.774C927.472 176.71 925.794 172.4 927.032 167.98C927.142 167.596 926.619 167.266 926.344 167.568C918.174 176.601 909.619 186.292 907.61 198.702C907.528 199.196 908.326 199.415 908.408 198.894Z" fill="white"/>
<path d="M930.91 211.111C934.817 210.37 938.668 211.303 942.437 212.237C946.123 213.116 949.836 213.912 953.605 214.571C960.868 215.834 968.24 216.575 975.612 216.877C976.135 216.905 976.135 216.081 975.612 216.054C967.772 215.752 959.987 214.9 952.257 213.5C948.516 212.814 944.83 211.962 941.144 211.084C937.705 210.26 934.211 209.656 930.69 210.342C930.195 210.425 930.415 211.221 930.91 211.111Z" fill="white"/>
<path d="M698.103 182.723C714.251 181.323 730.068 177.534 745.721 173.471C761.731 169.298 777.741 165.07 793.751 160.842C809.734 156.642 825.689 152.331 841.727 148.24C849.705 146.209 857.765 144.369 865.962 143.601C873.857 142.859 881.835 142.969 889.73 143.71C908.161 145.413 926.097 150.327 943.895 155.214C944.418 155.351 944.638 154.555 944.115 154.418C928.463 150.107 912.728 145.797 896.58 143.656C888.547 142.585 880.405 142.036 872.289 142.365C864.312 142.667 856.444 143.93 848.659 145.687C840.737 147.499 832.897 149.668 825.029 151.755C816.997 153.869 808.964 155.983 800.931 158.097C784.701 162.352 768.443 166.635 752.213 170.89C734.415 175.558 716.506 180.28 698.103 181.872C697.58 181.955 697.58 182.778 698.103 182.723Z" fill="white"/>
<path d="M653.786 232.087C660.498 232.334 667.238 232.581 673.95 232.829C680.497 233.076 687.072 233.46 693.619 233.515C700.001 233.57 706.163 232.334 712.435 231.209C718.982 230.028 725.612 229.177 732.242 228.71C739.641 228.161 747.069 228.078 754.469 228.38C754.991 228.408 754.991 227.584 754.469 227.557C741.485 227.007 728.473 227.749 715.654 229.836C709.107 230.906 702.614 232.554 695.985 232.691C689.493 232.856 682.918 232.362 676.426 232.115C668.888 231.84 661.351 231.565 653.814 231.291C653.263 231.236 653.263 232.06 653.786 232.087Z" fill="white"/>
<path d="M640.279 268.052C640.691 268.354 641.104 268.629 641.517 268.931C641.902 269.205 642.342 268.601 642.012 268.272C640.746 266.954 639.508 265.663 638.243 264.346C637.665 263.742 636.978 263.193 636.51 262.506C635.795 261.463 636.537 260.969 636.703 260.118C636.895 259.239 636.015 258.745 635.52 258.196C634.419 257.015 633.704 255.533 633.154 254.023C630.871 247.791 630.073 240.762 629.853 234.173C629.715 234.31 629.578 234.448 629.44 234.585C636.372 233.953 640.389 240.488 642.699 246.006C645.285 252.128 647.651 258.525 647.954 265.252C647.981 265.773 648.806 265.773 648.779 265.252C648.449 258.059 645.863 251.085 642.947 244.551C640.526 239.087 636.152 233.13 629.413 233.734C629.193 233.761 629 233.899 629 234.146C629.138 237.687 629.468 241.201 630.045 244.688C630.623 248.093 631.283 251.607 632.549 254.819C633.016 255.999 633.594 257.125 634.364 258.113C634.914 258.8 635.85 259.404 635.52 260.42C635.382 260.831 635.107 261.051 635.134 261.545C635.19 262.753 636.51 263.742 637.253 264.51C638.628 265.938 640.031 267.393 641.407 268.821C641.572 268.601 641.737 268.381 641.902 268.162C641.489 267.86 641.076 267.585 640.664 267.283C640.251 267.036 639.839 267.75 640.279 268.052Z" fill="white"/>
<path d="M645.396 249.356C647.789 243.096 651.998 237.632 657.472 233.761C657.28 233.706 657.087 233.652 656.894 233.624C658.435 237.138 659.48 240.817 660.03 244.606C660.113 244.441 660.223 244.276 660.306 244.112C659.645 244.304 658.985 244.496 658.297 244.688C658.022 244.771 657.94 245.045 658.05 245.292C658.82 247.132 659.673 249.218 658.82 251.168C658.105 252.787 656.564 253.995 655.491 255.341C653.538 257.757 652.025 260.447 650.87 263.302C650.677 263.797 651.475 264.016 651.668 263.522C653.208 259.651 655.519 256.576 658.242 253.474C659.233 252.348 659.975 251.113 660.03 249.575C660.085 247.928 659.398 246.363 658.765 244.88C658.683 245.073 658.6 245.292 658.517 245.484C659.178 245.292 659.838 245.1 660.526 244.908C660.746 244.853 660.856 244.633 660.801 244.414C660.223 240.543 659.15 236.809 657.582 233.212C657.5 233.02 657.197 232.938 657.004 233.075C651.338 237.111 647.019 242.684 644.543 249.163C644.433 249.63 645.203 249.85 645.396 249.356Z" fill="white"/>
<path d="M632.577 223.658C642.205 221.791 652.053 221.077 661.736 222.917C666.247 223.768 670.704 224.757 675.27 225.278C680.084 225.827 684.954 226.047 689.795 226.239C690.318 226.267 690.318 225.443 689.795 225.416C684.954 225.196 680.084 225.004 675.27 224.455C670.264 223.878 665.367 222.697 660.388 221.846C651.09 220.253 641.544 221.105 632.356 222.889C631.834 222.972 632.054 223.768 632.577 223.658Z" fill="white"/>
<path d="M668.861 256.302C674.363 255.423 679.864 254.517 685.421 254.188C691.06 253.858 696.507 254.325 702.036 255.341C707.098 256.275 711.995 256.714 717.166 256.604C722.531 256.467 727.95 256.22 733.177 257.62C733.699 257.757 733.919 256.961 733.397 256.824C728.335 255.451 723.136 255.616 717.937 255.753C715.186 255.835 712.407 255.863 709.656 255.643C706.823 255.423 704.017 254.847 701.239 254.352C695.902 253.391 690.593 253.034 685.146 253.364C679.617 253.721 674.115 254.6 668.641 255.478C668.118 255.588 668.338 256.384 668.861 256.302Z" fill="white"/>
<path d="M921.448 238.429C928.38 236.37 935.312 236.425 942.409 237.276C949.094 238.072 955.834 239.115 962.546 237.935C963.069 237.852 962.849 237.056 962.326 237.138C955.339 238.374 948.324 237.111 941.364 236.342C934.514 235.573 927.83 235.656 921.2 237.66C920.732 237.797 920.925 238.594 921.448 238.429Z" fill="white"/>
<path d="M893.801 81.4435C888.684 78.698 885.356 73.3718 886.126 67.4691C886.814 62.0606 891.16 57.3933 896.469 56.1304C901.889 54.8675 907.941 57.4207 910.884 62.1155C914.048 67.1397 913.36 73.7837 909.481 78.2313C905.08 83.2829 897.377 84.0517 891.82 80.4826C891.38 80.1806 890.968 80.8944 891.408 81.1964C896.579 84.5458 903.732 84.3262 908.518 80.3453C913.277 76.3918 915.038 69.5282 912.672 63.7902C910.416 58.3267 904.64 54.7576 898.725 55.0047C892.893 55.2793 887.612 59.4798 885.851 64.9982C883.65 71.8344 887.336 78.8627 893.416 82.1298C893.856 82.4044 894.269 81.6906 893.801 81.4435Z" fill="white"/>
<path d="M841.534 104.533C840.984 103.05 840.324 101.293 841.314 99.8378C842.222 98.5475 843.763 99.2064 845.056 98.7945C846.761 98.2454 847.806 96.5707 848.274 94.9509C848.824 93.0565 848.164 90.5856 849.292 88.9109C850.667 86.8518 853.638 89.3776 855.509 88.1147C855.949 87.8127 855.536 87.0989 855.096 87.4009C853.198 88.6912 850.612 86.0556 848.824 88.1696C847.394 89.8443 848.054 92.3976 847.586 94.3743C847.256 95.7471 846.514 97.2022 845.221 97.8611C844.093 98.4376 842.8 97.8611 841.672 98.4376C839.251 99.6731 840.022 102.748 840.764 104.752C840.902 105.219 841.7 105.027 841.534 104.533Z" fill="white"/>
<path d="M844.505 85.2872C843.982 83.9145 844.285 82.3495 845.303 81.2514C846.568 79.8786 848.026 80.4277 849.594 79.8786C850.529 79.5492 851.079 78.753 851.437 77.8745C851.657 77.3254 851.795 76.7488 851.987 76.1997C852.152 75.7605 852.345 75.2663 852.675 74.9368C853.17 74.4701 854.353 74.0857 854.656 75.129C854.821 75.6232 855.591 75.431 855.453 74.9094C855.096 73.7563 853.748 73.3445 852.702 73.8935C850.722 74.9094 851.437 77.9294 849.594 78.9452C848.576 79.4943 847.311 79.1648 846.238 79.6041C845.55 79.9061 844.945 80.4003 844.477 80.9768C843.46 82.2672 843.129 83.9694 843.707 85.5068C843.872 86.001 844.67 85.7814 844.505 85.2872Z" fill="white"/>
<path d="M867.668 114.609C866.843 113.428 867.09 111.754 868.163 110.765C869.401 109.612 871.189 110.133 872.042 111.451C873.995 114.39 869.676 116.971 867.613 114.527C867.255 114.115 866.678 114.719 867.035 115.103C868.218 116.504 870.419 116.669 871.932 115.68C873.637 114.582 873.775 112.358 872.592 110.792C871.437 109.255 869.291 108.733 867.75 109.996C866.292 111.177 865.852 113.428 866.953 114.994C867.255 115.46 867.971 115.049 867.668 114.609Z" fill="white"/>
<path d="M870.776 119.167C870.006 118.096 869.043 116.806 869.373 115.433C869.869 113.401 872.289 113.922 873.39 115.131C874.297 116.147 874.628 117.739 873.472 118.7C872.592 119.442 871.244 119.579 870.446 118.7C870.089 118.316 869.511 118.892 869.869 119.277C870.969 120.458 872.839 120.348 874.022 119.332C875.425 118.124 875.26 116.119 874.16 114.774C873.06 113.401 870.556 112.412 869.181 113.977C867.64 115.735 868.933 118.014 870.061 119.579C870.364 120.018 871.079 119.606 870.776 119.167Z" fill="white"/>
<path d="M892.096 154.418C910.802 154.28 928.407 161.254 946.068 166.415C951.13 167.898 956.247 169.243 961.418 170.259C961.941 170.369 962.161 169.572 961.638 169.463C943.29 165.839 925.987 158.069 907.528 154.912C902.439 154.033 897.267 153.539 892.096 153.594C891.573 153.594 891.573 154.418 892.096 154.418Z" fill="white"/>
</g>
<defs>
<linearGradient id="paint0_linear" x1="74" y1="6.50006" x2="945" y2="279" gradientUnits="userSpaceOnUse">
<stop stop-color="#227FEB"/>
<stop offset="1" stop-color="#0D5FC0"/>
</linearGradient>
</defs>
</svg>
