<svg width="121" height="22" viewBox="0 0 121 22" fill="none" xmlns="http://www.w3.org/2000/svg">
<g clip-path="url(#clip0)">
<path d="M10.2656 21.984C7.32692 21.984 4.97315 21.0156 3.20498 19.0788C1.43682 17.1421 0.552734 14.6222 0.552734 11.5196C0.552734 8.18566 1.45392 5.52618 3.25563 3.5411C5.05735 1.55603 7.50995 0.563735 10.6125 0.563735C13.4741 0.563735 15.7795 1.52725 17.5286 3.45444C19.2773 5.38163 20.1517 7.90133 20.1519 11.0137C20.1519 14.3958 19.2556 17.0697 17.4635 19.0354C15.6711 21.0012 13.2718 21.984 10.2656 21.984ZM10.4391 2.76079C8.26149 2.76079 6.49332 3.54603 5.13464 5.1167C3.77595 6.68736 3.09661 8.7494 3.09661 11.3028C3.09661 13.8562 3.75902 15.911 5.08399 17.4672C6.40896 19.0234 8.13618 19.8014 10.2658 19.8014C12.5397 19.8014 14.3318 19.0594 15.6423 17.5756C16.9527 16.0918 17.6078 14.0153 17.608 11.3461C17.608 8.60945 16.9719 6.49446 15.7001 5.00092C14.428 3.50755 12.6743 2.76079 10.4393 2.76079H10.4391ZM36.1955 21.6372H33.8251V13.1963C33.8251 10.055 32.6784 8.48447 30.3851 8.48447C29.1999 8.48447 28.2195 8.93013 27.4438 9.82145C26.668 10.7128 26.2803 11.8378 26.2803 13.1963V21.6372H23.9099V6.83668H26.2803V9.29373H26.3382C27.4559 7.42442 29.0748 6.48969 31.1945 6.48969C32.8134 6.48969 34.0515 7.01248 34.9091 8.05788C35.7666 9.10329 36.1953 10.6138 36.1955 12.5891V21.6372ZM52.5714 14.8296H42.1214C42.1599 16.4774 42.6032 17.7493 43.4511 18.6453C44.299 19.5414 45.465 19.9896 46.949 19.9896C48.616 19.9896 50.148 19.4403 51.5454 18.3418V20.5676C50.2446 21.5119 48.5244 21.984 46.3853 21.984C44.2943 21.984 42.6514 21.3119 41.4567 19.9677C40.262 18.6235 39.6644 16.7325 39.6644 14.2947C39.6644 11.9917 40.3172 10.1152 41.623 8.66503C42.9287 7.21491 44.5497 6.48969 46.4864 6.48969C48.4231 6.48969 49.9218 7.11608 50.9815 8.36869C52.0412 9.62131 52.5712 11.3605 52.5714 13.5865V14.8296ZM50.1431 12.8205C50.1332 11.4523 49.8035 10.3875 49.1531 9.62624C48.5027 8.86501 47.5992 8.48447 46.443 8.48447C45.3252 8.48447 44.3762 8.88441 43.5957 9.68413C42.8152 10.4839 42.3334 11.5294 42.1503 12.8205H50.1431ZM56.4882 21.6372V0.910724H62.2119C69.5158 0.910724 73.1677 4.27849 73.1677 11.0139C73.1677 14.2129 72.1536 16.7833 70.1254 18.7249C68.0968 20.6666 65.3819 21.6373 61.9807 21.6373H56.4882V21.6372ZM58.9165 3.10761V19.4401H62.0098C64.7269 19.4401 66.842 18.7126 68.3548 17.2577C69.8676 15.8028 70.6242 13.7406 70.6242 11.0716C70.6242 5.76233 67.8008 3.10761 62.1542 3.10761H58.9165ZM84.6439 9.236C84.2295 8.91796 83.6322 8.7591 82.8517 8.7591C81.84 8.7591 80.9944 9.236 80.3151 10.19C79.6357 11.144 79.2961 12.4448 79.2961 14.0924V21.6372H76.9258V6.83668H79.2961V9.8864H79.354C79.6913 8.84577 80.2069 8.03387 80.9005 7.4509C81.5942 6.86792 82.37 6.57652 83.2275 6.57652C83.8442 6.57652 84.3163 6.64394 84.6439 6.77879V9.236ZM88.4307 3.07883C88.0067 3.07883 87.6454 2.93428 87.3466 2.64518C87.0478 2.35608 86.8985 1.99001 86.8985 1.54665C86.8985 1.10329 87.0478 0.734762 87.3466 0.44089C87.6454 0.147018 88.0067 0 88.4307 0C88.8643 0 89.2329 0.147018 89.5364 0.44089C89.84 0.734762 89.992 1.10329 89.992 1.54665C89.992 1.9706 89.84 2.3319 89.5364 2.63071C89.2329 2.92951 88.8643 3.07883 88.4307 3.07883ZM89.5871 21.6372H87.2167V6.83668H89.5871V21.6372ZM106.021 6.83668L100.124 21.6372H97.7968L92.1887 6.83668H94.7903L98.5483 17.5902C98.8279 18.3804 99.0012 19.0693 99.0686 19.657H99.1265C99.2229 18.915 99.377 18.2454 99.5889 17.6479L103.52 6.83668H106.021ZM120.445 14.8296H109.995C110.034 16.4774 110.477 17.7493 111.325 18.6453C112.173 19.5414 113.339 19.9896 114.823 19.9896C116.49 19.9896 118.022 19.4403 119.419 18.3418V20.5676C118.119 21.5119 116.399 21.984 114.259 21.984C112.168 21.984 110.526 21.3119 109.331 19.9677C108.136 18.6235 107.538 16.7325 107.538 14.2947C107.538 11.9917 108.191 10.1152 109.497 8.66503C110.803 7.21491 112.424 6.48969 114.36 6.48969C116.297 6.48969 117.796 7.11608 118.856 8.36869C119.915 9.62131 120.445 11.3605 120.445 13.5865V14.8296ZM118.017 12.8205C118.007 11.4523 117.678 10.3875 117.027 9.62624C116.377 8.86501 115.473 8.48447 114.317 8.48447C113.199 8.48447 112.25 8.88441 111.47 9.68413C110.689 10.4839 110.207 11.5294 110.024 12.8205H118.017Z" fill="#094AB1"/>
</g>
<defs>
<clipPath id="clip0">
<rect width="120" height="21.984" fill="white" transform="translate(0.5)"/>
</clipPath>
</defs>
</svg>
