<svg width="131" height="27" viewBox="0 0 131 27" fill="none" xmlns="http://www.w3.org/2000/svg">
<g clip-path="url(#clip0)">
<path d="M13.5519 23.6773C11.1156 23.0686 9.75828 21.132 9.75393 18.2586C9.75248 17.3396 9.81906 16.8994 10.0483 16.3086C10.6105 14.8602 12.0988 13.7673 14.057 13.3651C15.0316 13.1649 15.3317 12.9502 15.3317 12.4527C15.3317 12.2966 15.4477 11.8319 15.5895 11.4199C16.2335 9.5482 17.4258 7.98797 18.6998 7.34945C20.0332 6.6814 20.7064 6.53083 22.3194 6.5394C24.6103 6.55166 25.7531 7.04858 27.3516 8.72734L28.2307 9.65051L29.0184 9.37799C32.8301 8.0589 36.6299 10.3043 36.9364 14.0569L37.0201 15.0835L37.7707 15.3525C39.9143 16.1205 40.9219 17.7333 40.7392 20.1041C40.6199 21.6546 39.8949 22.8922 38.7466 23.507L38.2067 23.7957L26.2089 23.8187C16.9892 23.8366 14.0586 23.8039 13.5519 23.6773Z" fill="#094AB1"/>
<path d="M4.5584 22.0189C3.13608 21.681 1.62884 20.4246 0.922163 18.9881C0.521359 18.173 0.5 18.0533 0.5 16.6116C0.5 15.2404 0.534279 15.0202 0.853472 14.3394C1.52627 12.904 2.8153 11.8669 4.43249 11.4596C4.77384 11.3736 5.09448 11.2365 5.14524 11.1547C5.19587 11.073 5.2523 10.6278 5.27023 10.1654C5.38282 7.29356 7.26713 4.76309 9.8982 3.95054C11.3196 3.5115 13.1054 3.61961 14.6515 4.23796C15.142 4.43414 15.0868 4.4762 16.1234 3.11676C16.7367 2.31278 17.9756 1.31288 18.9897 0.803569C20.0843 0.253913 21.2226 0.000641912 22.5838 0.003938C26.3884 0.0132989 29.6675 2.39307 30.88 6.02496C31.2674 7.18532 31.248 7.51044 30.791 7.52007C30.5917 7.52402 30.0203 7.63385 29.5214 7.76398L28.6142 8.00037L27.7864 7.17266C25.4527 4.83877 21.6437 4.33434 18.4058 5.9303C17.1121 6.5679 16.0728 7.48342 15.2876 8.6762C14.7279 9.52659 14.0141 11.1131 14.0141 11.507C14.0141 11.7865 13.7878 11.9263 12.8216 12.243C9.82977 13.2241 8.08337 15.49 8.08469 18.3896C8.08508 19.4449 8.35681 20.7361 8.73415 21.4756C8.87641 21.7544 8.95578 22.0196 8.91056 22.0649C8.79467 22.1801 5.07286 22.1414 4.5584 22.0189ZM102.386 6.18146C101.71 5.93162 101.675 4.9983 102.332 4.76942C102.89 4.57469 103.327 4.82954 103.38 5.38144C103.445 6.0512 103 6.40876 102.386 6.18146ZM46.7635 20.4033V19.0941C47.953 19.8509 49.1579 20.2294 50.3783 20.2294C51.676 20.2294 52.6607 19.9609 53.3327 19.4242C54.0047 18.8873 54.3406 18.1361 54.3406 17.1707C54.3406 16.3211 54.1148 15.6433 53.6628 15.1375C53.211 14.6314 52.2319 13.9422 50.7259 13.0694C49.0421 12.0884 47.9763 11.2677 47.5282 10.6073C47.0803 9.94691 46.8562 9.1842 46.8562 8.31917C46.8562 7.14524 47.3119 6.14877 48.2232 5.33002C49.1347 4.51127 50.3513 4.10203 51.8729 4.1019C52.8615 4.1019 53.8502 4.26802 54.8389 4.60013V5.80505C53.8656 5.36482 52.8267 5.14465 51.7222 5.14465C50.5944 5.14465 49.7004 5.43048 49.04 6.00202C48.3796 6.57357 48.0495 7.29963 48.0495 8.18021C48.0495 9.02981 48.2753 9.70577 48.7273 10.2077C49.1791 10.7098 50.1542 11.3934 51.6526 12.2584C53.2051 13.139 54.2381 13.9211 54.7519 14.6044C55.2655 15.2882 55.5224 16.0739 55.5224 16.9622C55.5224 18.2366 55.0802 19.2755 54.1957 20.0788C53.3115 20.8821 52.062 21.2837 50.4477 21.2837C49.8762 21.2837 49.2177 21.1949 48.4724 21.0173C47.7271 20.8396 47.1574 20.6351 46.7635 20.4033ZM64.0778 20.9939L58.4008 15.1315H58.3544V20.9939H57.2885V3.43002H58.3544V14.7493H58.4008L63.7881 9.13014H65.1668L59.5361 14.8767L65.6187 20.9938H64.0778V20.9939ZM72.0235 23.4156C71.5909 24.4815 71.112 25.2732 70.5869 25.7907C70.0616 26.3083 69.3858 26.5671 68.5593 26.5671C68.2118 26.5671 67.9028 26.513 67.6326 26.4049V25.339C67.9105 25.447 68.235 25.501 68.6057 25.501C69.5558 25.501 70.305 24.8446 70.8534 23.5315L71.9541 20.9015L67.4588 9.13027H68.6521L72.2321 18.7929C72.3093 19.0015 72.3634 19.1599 72.3942 19.268C72.4251 19.4147 72.4599 19.5459 72.4985 19.6618H72.5449L72.823 18.8626L76.6463 9.1304H77.8048L72.0235 23.4156ZM79.583 20.9939V4.37995H83.7423C86.4998 4.37995 88.5967 5.06739 90.0334 6.44225C91.47 7.81711 92.1884 9.8214 92.1884 12.4552C92.1884 14.9886 91.4179 17.0451 89.8771 18.6247C88.3361 20.2041 86.2102 20.9939 83.4991 20.9939H79.583ZM80.7299 5.43431V19.9513H83.3367C85.8006 19.9513 87.6929 19.3121 89.0137 18.0339C90.3345 16.7557 90.995 14.9115 90.995 12.5016C90.995 7.79008 88.5195 5.43431 83.5685 5.43431H80.7299ZM99.8809 10.2424C99.5256 9.98752 99.1086 9.86003 98.6296 9.86003C97.6951 9.86003 96.911 10.3428 96.2777 11.3082C95.6443 12.2737 95.3277 13.6446 95.3277 15.4212V20.9939H94.285V9.13014H95.3277V11.7602H95.3741C95.6444 10.8565 96.0732 10.1535 96.6601 9.65145C97.2471 9.14939 97.9268 8.89849 98.6992 8.89836C99.1396 8.89836 99.5334 8.96784 99.8811 9.10694V10.2424H99.8809Z" fill="#094AB1"/>
<path d="M102.638 6.14007C102.406 6.14007 102.202 6.05503 102.024 5.88509C101.847 5.71514 101.758 5.49892 101.758 5.23628C101.758 4.98143 101.849 4.77483 102.03 4.61649C102.211 4.45814 102.414 4.37904 102.638 4.37891C102.878 4.37891 103.088 4.45617 103.27 4.61069C103.451 4.76521 103.542 4.97365 103.542 5.23628C103.542 5.48349 103.453 5.69589 103.275 5.87348C103.098 6.05121 102.885 6.14007 102.638 6.14007ZM102.117 20.9929V9.12909H103.183V20.9929H102.117ZM110.876 20.9929H109.903L105.315 9.12909H106.508L110.042 18.5716C110.212 19.0274 110.331 19.4404 110.401 19.8112H110.447C110.548 19.3247 110.66 18.9269 110.783 18.6179L114.433 9.12909H115.591L110.876 20.9929ZM117.726 15.1074C117.726 16.7371 118.102 18.0115 118.855 18.9309C119.608 19.8499 120.642 20.3095 121.955 20.3095C123.283 20.3095 124.581 19.819 125.847 18.8382V19.9735C124.619 20.8463 123.248 21.2827 121.734 21.2827C120.205 21.2827 118.969 20.7344 118.027 19.6374C117.085 18.5407 116.613 16.9921 116.613 14.9915C116.613 13.2615 117.106 11.8035 118.091 10.618C119.075 9.43247 120.356 8.83957 121.931 8.83957C123.407 8.83957 124.538 9.35705 125.326 10.392C126.114 11.427 126.508 12.8405 126.508 14.6325V15.1074H117.726ZM125.395 14.1343C125.349 12.767 125.021 11.7051 124.411 10.9481C123.8 10.1912 122.959 9.8127 121.885 9.8127C120.773 9.8127 119.852 10.1854 119.122 10.9307C118.392 11.6762 117.942 12.7438 117.772 14.1343H125.395ZM128.96 21.2322C128.61 21.2322 128.311 21.1085 128.064 20.8614C127.817 20.6141 127.693 20.3154 127.693 19.965C127.693 19.6147 127.817 19.3158 128.064 19.0686C128.311 18.8214 128.61 18.6978 128.96 18.6978C129.309 18.6978 129.608 18.8214 129.855 19.0686C130.102 19.3158 130.226 19.6147 130.226 19.965C130.226 20.3154 130.102 20.6141 129.855 20.8614C129.608 21.1085 129.309 21.2322 128.96 21.2322ZM128.96 18.8464C128.652 18.8464 128.388 18.9556 128.17 19.1741C127.951 19.3927 127.842 19.6563 127.842 19.9649C127.842 20.2736 127.951 20.5368 128.17 20.7548C128.388 20.9727 128.652 21.0816 128.96 21.0816C129.269 21.0816 129.532 20.9727 129.75 20.7548C129.968 20.5368 130.077 20.2736 130.077 19.9649C130.077 19.6563 129.968 19.3927 129.75 19.1741C129.532 18.9556 129.269 18.8464 128.96 18.8464ZM129.575 20.7573H129.302L129.126 20.3703C129.037 20.1767 128.941 20.0797 128.839 20.0797H128.69V20.7573H128.465V19.1454H128.918C129.106 19.1454 129.251 19.1848 129.353 19.2636C129.455 19.3425 129.506 19.4494 129.506 19.5847C129.506 19.6952 129.47 19.7892 129.399 19.867C129.327 19.9446 129.227 19.9969 129.099 20.024V20.0308C129.188 20.0499 129.277 20.149 129.364 20.3281L129.575 20.7573ZM128.69 19.3381V19.889H128.932C129.154 19.889 129.264 19.7967 129.264 19.6118C129.264 19.5127 129.234 19.4423 129.175 19.4006C129.115 19.359 129.021 19.338 128.891 19.338H128.69V19.3381Z" fill="#094AB1"/>
</g>
<defs>
<clipPath id="clip0">
<rect width="130" height="26.572" fill="white" transform="translate(0.5)"/>
</clipPath>
</defs>
</svg>
