<svg width="131" height="36" viewBox="0 0 131 36" fill="none" xmlns="http://www.w3.org/2000/svg">
<g clip-path="url(#clip0)">
<path d="M12.275 16.8603C12.389 16.494 12.7784 16.1968 13.1448 16.1968L16.0442 16.1888L13.4813 24.417H9.92969L12.275 16.8603ZM22.5606 16.1886L19.9977 24.417H16.4447L17.5126 20.983L16.03 20.9923C15.6005 20.9923 15.3609 20.6467 15.4943 20.2159C15.627 19.7862 16.0842 19.4384 16.5127 19.4384L17.9931 19.4395L18.7933 16.851C18.9089 16.4847 19.2979 16.1875 19.6645 16.1875L22.5603 16.1886H22.5606ZM27.6923 22.567C27.583 22.9182 27.3883 23.0773 27.0544 23.0773H25.5682C25.233 23.0773 25.1375 22.9184 25.2468 22.567L26.226 19.4232C26.3355 19.0754 26.53 18.9142 26.8641 18.9142H28.3501C28.6842 18.9142 28.7797 19.0754 28.6704 19.4232L27.6923 22.567ZM31.1688 22.438L32.065 19.5557C32.4523 18.3176 32.2609 17.5745 30.79 17.5745H25.2597C23.7873 17.5745 23.1354 18.3174 22.7495 19.5557L21.851 22.438C21.4674 23.675 21.6577 24.417 23.1274 24.417H28.6613C30.1299 24.417 30.7818 23.675 31.169 22.438H31.1688ZM50.8404 16.1968C50.4763 16.1968 50.0847 16.494 49.9717 16.8603L49.7437 17.571L46.0761 17.5745C44.6512 17.5745 43.7203 18.4061 43.3436 19.6133L42.4922 22.348C42.1261 23.5288 42.4611 24.417 43.9473 24.417H51.05L53.612 16.1886L50.8402 16.1968H50.8404ZM48.1864 22.583C48.0804 22.9184 47.8868 23.0773 47.5667 23.0773H46.197C45.8342 23.0773 45.7511 22.9184 45.8571 22.5832L46.8443 19.4095C46.9492 19.0754 47.1288 18.9142 47.494 18.9142H48.8615C49.1838 18.9142 49.2784 19.0754 49.1735 19.4095L48.1864 22.583ZM87.9301 24.417C86.5031 24.417 86.0917 23.5888 86.4671 22.378L87.3289 19.6135C87.7054 18.4061 88.6317 17.5745 90.0589 17.5745L95.0593 17.571C95.427 17.571 95.6284 17.8682 95.5179 18.2345C95.4028 18.6008 95.0122 18.898 94.6481 18.898L91.6958 18.9142C91.2281 18.9142 90.9056 19.1618 90.7651 19.6135L89.9022 22.378C89.764 22.8297 89.9333 23.0773 90.401 23.0773L93.3685 23.068C93.7337 23.068 93.9375 23.3652 93.8246 23.7315C93.7105 24.0989 93.3189 24.3961 92.9548 24.3961L87.9301 24.417ZM96.6411 18.2345C96.754 17.8682 97.1434 17.571 97.5095 17.571L100.279 17.5745L98.1488 24.417H94.7126L96.6411 18.2345ZM101.393 18.2345C101.508 17.8682 101.898 17.571 102.262 17.571L102.973 17.5745H108.593C110.165 17.5745 110.544 18.5512 110.096 19.9923L108.718 24.417H105.283L106.842 19.4095C106.936 19.1043 106.866 18.9142 106.503 18.9142H105.074C104.799 18.9142 104.561 19.0754 104.454 19.4095L102.897 24.417H99.4598L101.124 19.0685L101.393 18.2345ZM116.073 22.5832C115.969 22.9184 115.775 23.0773 115.454 23.0773H114.087C113.722 23.0773 113.64 22.9184 113.744 22.5832L114.733 19.4095C114.836 19.0754 115.019 18.9142 115.381 18.9142H116.75C117.072 18.9142 117.165 19.0754 117.064 19.4095L116.073 22.5832ZM115.887 27.0088C117.491 27.0088 118.366 26.2519 118.911 24.5046L121.07 17.5745H113.965C112.48 17.5745 111.59 18.4625 111.224 19.6422L110.372 22.378C109.995 23.5888 110.406 24.417 111.833 24.417L115.498 24.4134L115.393 24.7671C115.151 25.5389 114.851 25.6691 114.284 25.6691L111.802 25.6669C111.433 25.6669 111.044 25.9641 110.93 26.3293C110.815 26.6945 111.019 26.9928 111.387 26.9928L115.887 27.0088ZM84.6875 17.5745L79.7342 17.571C79.369 17.571 78.9773 17.8682 78.8644 18.2345C78.7504 18.6008 78.9542 18.898 79.3219 18.898L82.5678 18.9142C82.9157 18.9142 83.0369 19.088 82.9573 19.3508L82.8201 19.7873H79.02C77.6503 19.7873 76.9466 20.3713 76.5065 21.7825L76.3118 22.408C75.8592 23.8629 76.2531 24.417 77.6228 24.417H84.8131L86.1826 20.0201C86.7689 18.1436 86.0997 17.5745 84.6875 17.5745ZM82.0553 22.2491C81.8597 22.8757 81.7236 23.0773 81.1684 23.0773H80.2377C79.6869 23.0773 79.5868 22.9184 79.71 22.5243L79.9692 21.695C80.0914 21.3011 80.2768 21.127 80.8885 21.127H82.4031L82.0553 22.2491ZM33.5061 18.2345C33.6201 17.8682 34.0084 17.571 34.3759 17.571L35.0867 17.5745H40.7046C42.2782 17.5745 42.6583 18.5512 42.2102 19.9923L40.8302 24.417H37.3951L38.9537 19.4095C39.0504 19.1043 38.9777 18.9142 38.6137 18.9142H37.1877C36.909 18.9142 36.6705 19.0754 36.568 19.4095L35.006 24.417H31.5709L33.2356 19.0685L33.5061 18.2345ZM61.218 17.5745L56.2636 17.571C55.8962 17.571 55.5079 17.8682 55.3941 18.2345C55.2787 18.6008 55.485 18.898 55.8491 18.898L59.0975 18.9142C59.4464 18.9142 59.5674 19.088 59.4856 19.3508L59.3498 19.7873H55.5472C54.1797 19.7873 53.4738 20.3713 53.0372 21.7825L52.8389 22.408C52.3864 23.8629 52.7836 24.417 54.1499 24.417H61.3447L62.7144 20.0201C63.295 18.1436 62.6304 17.5745 61.218 17.5745ZM58.5836 22.2491C58.3891 22.8757 58.2508 23.0773 57.6989 23.0773H56.7682C56.2129 23.0773 56.1185 22.9184 56.2407 22.5243L56.4999 21.695C56.6197 21.3011 56.8073 21.127 57.419 21.127H58.9328L58.5836 22.2491ZM70.8977 20.7872C70.8798 20.7074 70.8775 20.6249 70.891 20.5442C70.9566 20.1708 71.34 19.8691 71.7479 19.8691H72.3203C72.6844 19.8691 72.8642 19.7078 72.97 19.3739L73.3917 18.0238C73.4966 17.6886 73.4137 17.5272 73.0518 17.5272H71.6821C71.362 17.5272 71.1686 17.6886 71.0624 18.0238L70.0706 21.2124L69.0801 24.4203L65.637 24.417L68.1976 16.1888H75.3004C76.7874 16.1888 77.1215 17.0768 76.7552 18.2565L76.4696 19.1701C76.1817 20.0903 75.5733 20.7905 74.668 21.0717L75.4744 24.4181H71.7732L70.8977 20.7872Z" fill="#EF1836"/>
<path d="M69.4134 29.0566L64.459 29.053C64.0951 29.053 63.7045 29.3502 63.5894 29.7154C63.4776 30.0828 63.6803 30.38 64.0477 30.38L67.2928 30.396C67.6407 30.396 67.7627 30.5712 67.682 30.8317L67.5473 31.2694H63.7459C62.3764 31.2694 61.6724 31.8533 61.2312 33.2643L61.0378 33.8898C60.5839 35.3449 60.9789 35.8999 62.3475 35.8999H69.5378L70.9086 31.5019C71.4939 29.6254 70.8233 29.0563 69.4134 29.0563V29.0566ZM66.7813 33.7309C66.5855 34.3564 66.4506 34.5591 65.8944 34.5591H64.9635C64.4118 34.5591 64.3138 34.4002 64.4361 34.0063L64.6952 33.1768C64.8173 32.7829 65.0027 32.609 65.6121 32.609H67.1281L66.7813 33.7309ZM84.7616 29.0566H74.4749L73.7654 29.053C73.3969 29.053 73.0096 29.3502 72.8956 29.7154L72.6251 30.5505L70.9593 35.8999H74.3956L75.9553 30.8926C76.0589 30.5574 76.2985 30.396 76.5761 30.396H77.7131C78.077 30.396 78.1497 30.5872 78.053 30.8926L76.4943 35.8999H79.3533L80.9144 30.8926C81.0166 30.5574 81.2551 30.396 81.5328 30.396H82.6708C83.0349 30.396 83.1076 30.5872 83.0096 30.8926L81.4523 35.8999H84.8872L86.2673 31.4743C86.7155 30.0333 86.334 29.0563 84.7616 29.0563V29.0566ZM52.4271 27.6638L45.6147 27.658C45.1861 27.658 44.7289 28.0058 44.5951 28.4355C44.4626 28.8641 44.7022 29.213 45.1308 29.213L46.8103 29.2142L44.738 35.8919H48.2883L50.3688 29.2164L51.9446 29.2175C52.3718 29.2175 52.8303 28.8696 52.9626 28.44C53.0964 28.0116 52.8568 27.6638 52.4269 27.6638H52.4271ZM59.1613 28.9861L54.6906 28.9828C53.2058 28.9828 52.3153 29.8697 51.949 31.0493L51.2257 33.3819C50.6393 35.2595 51.3086 35.8286 52.7197 35.8286L58.5416 35.8321C58.9055 35.8321 59.2974 35.5336 59.4112 35.1686C59.5241 34.8023 59.3201 34.5051 58.9528 34.5051L54.8415 34.49C54.4915 34.49 54.3703 34.3151 54.4521 34.0523L54.5881 33.6158H57.809C59.4285 33.618 60.3674 33.0156 60.9467 31.433C60.9456 31.433 60.9467 31.433 60.9467 31.433C61.5309 29.5551 60.5746 28.9861 59.1613 28.9861ZM57.6983 30.8777L57.438 31.7081C57.3171 32.1009 57.1315 32.2761 56.5211 32.2761H55.0063L55.1847 31.6966L55.3646 31.1184C55.5546 30.5227 55.6962 30.3247 56.2388 30.3247H57.1708C57.7225 30.3247 57.8217 30.4847 57.6983 30.8777ZM56.8541 2.61741L53.5572 13.208H58.3353C59.864 10.9629 61.7669 8.88016 63.9417 7.03012H60.2463L60.7958 5.26544H66.195C67.5415 4.29429 68.879 3.40717 70.3627 2.61719H56.8541V2.61741Z" fill="#7E8083"/>
<path d="M71.1557 2.61716C69.6796 3.40298 68.2584 4.28774 66.9017 5.2654C66.127 5.82298 65.3753 6.41177 64.6484 7.03031H69.9543L68.0293 13.2079H73.3247L77.444 -0.0195312C75.2712 0.663901 73.1662 1.54655 71.1557 2.61716Z" fill="#EF1836"/>
</g>
<defs>
<clipPath id="clip0">
<rect width="130" height="36" fill="white" transform="translate(0.5)"/>
</clipPath>
</defs>
</svg>
