<svg width="101" height="29" viewBox="0 0 101 29" fill="none" xmlns="http://www.w3.org/2000/svg">
<g clip-path="url(#clip0)">
<path fill-rule="evenodd" clip-rule="evenodd" d="M78.912 2.00036H84.7104L88.1448 8.28939L94.2108 2.17877H100.5L90.2412 12.4821L88.9031 17.9236H83.0601L84.5766 12.1252L78.912 2.00036ZM63.3901 1.91115C63.3901 1.91115 67.449 1.95576 70.8834 1.95576C74.2733 1.95576 78.8228 2.22337 79.9825 7.0405C81.1421 11.813 78.5998 14.5784 76.6818 16.0057C74.7639 17.433 72.2661 17.7452 68.7871 17.7452H60.1787L63.3901 1.91115ZM65.9325 13.8648H68.9655C70.8388 13.8648 72.3107 13.5971 73.1582 13.0173C74.0056 12.4375 75.3883 11.1886 75.2545 8.82462C75.1207 6.46066 72.1769 5.97003 70.3928 5.97003H67.5382L65.9325 13.8648ZM61.6952 2.00036C61.6952 2.00036 53.9343 1.95576 49.9646 1.95576C45.9949 1.95576 44.1662 3.96289 43.5418 6.05923C42.9173 8.15558 42.0253 12.3929 41.8468 14.3108C41.6684 16.2287 42.6497 17.7006 46.1287 17.7006H58.573L59.4204 13.731H49.3848C46.6194 13.731 46.9762 12.5713 47.0654 12.1252C47.11 11.813 47.1992 11.5008 47.1992 11.5008H58.4392L59.1082 7.97716H47.9575C47.9575 7.97716 48.0467 7.53113 48.2251 7.12971C48.4035 6.72828 48.8495 5.79162 50.9459 5.79162H60.9816L61.6952 2.00036ZM35.3348 10.3857L41.49 17.7006H34.9334L31.6773 13.5971L35.3348 10.3857ZM21.8201 1.77734H28.4659L32.168 6.46066L28.4213 9.71668L21.8201 1.77734ZM20.5266 1.82195C20.5266 1.82195 12.7656 1.77734 8.79597 1.77734C4.8263 1.77734 2.99758 3.78448 2.37313 5.88082C1.74869 7.97717 0.85663 12.2145 0.678217 14.177C0.499805 16.0949 1.48107 17.5668 4.96011 17.5668H17.4044L18.2518 13.5971C18.2518 13.5971 10.5355 13.6417 8.21613 13.6417C5.45074 13.6417 5.80757 12.4375 5.89678 12.036C5.94138 11.7684 6.03058 11.4116 6.03058 11.4116H17.2706L17.9396 7.93256H6.69963C6.69963 7.93256 6.78884 7.48653 6.96725 7.0851C7.14566 6.68368 7.59169 5.74701 9.68804 5.74701H19.7237L20.5266 1.82195Z" fill="black"/>
<path fill-rule="evenodd" clip-rule="evenodd" d="M21.5078 19.6631C21.5078 19.6631 23.2919 19.9754 26.4141 17.9682C29.0903 16.2287 32.9708 12.5267 35.7361 10.2073C38.5015 7.88794 41.8021 4.94414 43.4525 3.56144C46.4855 1.15288 48.8494 0.394628 48.8494 0.394628C48.8494 0.394628 46.3962 0.350025 43.7647 2.17875C41.0885 4.00747 35.7361 8.95841 33.1046 11.1886C30.4284 13.4187 27.4846 16.0949 25.4775 17.5668C23.4257 19.0833 21.5078 19.6631 21.5078 19.6631Z" fill="black"/>
<path fill-rule="evenodd" clip-rule="evenodd" d="M17.8945 19.6198C17.8945 19.6198 19.9909 20.2443 23.8713 17.6127C26.0569 16.1408 32.2567 10.6992 34.8437 8.42447C37.4306 6.19432 40.0622 3.91957 41.4895 2.8045C43.5858 1.2434 45.7714 0.485147 45.7714 0.485147C45.7714 0.485147 43.8089 0.128323 40.6867 1.95704C37.5644 3.78577 33.0149 8.24606 30.8294 10.0302C28.6438 11.8589 25.5662 14.6243 22.8009 16.8098C20.1247 18.9508 17.8945 19.6198 17.8945 19.6198Z" fill="black"/>
<path fill-rule="evenodd" clip-rule="evenodd" d="M14.9521 19.6198C14.9521 19.6198 16.6471 19.932 19.7693 17.9248C22.8915 15.8731 27.887 11.279 30.2956 9.27185C32.7042 7.22011 36.5846 3.65187 38.4134 2.44758C40.2867 1.2433 42.2492 0.48505 42.2492 0.48505C42.2492 0.48505 39.8407 0.395843 37.0753 2.26917C34.3545 4.1425 30.5186 7.79995 27.9316 9.94089C25.7015 11.8142 21.1966 15.7839 19.1894 17.3004C17.1823 18.8169 14.9521 19.6198 14.9521 19.6198ZM9.68898 24.4815H11.0717C11.3839 24.4815 11.6069 24.4369 11.7407 24.3031C11.8745 24.1693 11.9637 23.9908 11.9637 23.7232C11.9637 23.5002 11.8745 23.2772 11.7407 23.1434C11.6069 23.0096 11.4285 22.965 11.1163 22.965H9.64437V24.4815H9.68898ZM8.5293 27.7375V21.9391H11.3393C11.9637 21.9391 12.4098 22.0729 12.722 22.3405C13.0342 22.6082 13.168 23.0096 13.168 23.5894C13.168 23.9462 13.0788 24.2139 12.945 24.4815C12.8112 24.7045 12.5882 24.8829 12.3206 24.9275C12.5882 25.0167 12.7666 25.1505 12.8558 25.3289C12.9896 25.5074 13.0342 25.775 13.0342 26.1764V26.89C13.0342 27.2023 13.1234 27.4253 13.2572 27.5145V27.6929H11.9637C11.9191 27.6037 11.8745 27.5145 11.8745 27.3807C11.8745 27.2469 11.8299 27.1131 11.8299 26.9793V26.3548C11.8299 25.998 11.7407 25.7304 11.6069 25.6412C11.4731 25.5074 11.2947 25.4627 10.9825 25.4627H9.73358V27.7375H8.5293ZM17.5391 23.0988L16.7363 25.552H18.342L17.5391 23.0988ZM16.8701 21.9391H18.2528L20.3491 27.7375H19.1002L18.6988 26.5332H16.4686L16.0672 27.7375H14.8183L16.8701 21.9391ZM26.5936 25.775C26.549 26.3994 26.2813 26.9346 25.8353 27.3361C25.3893 27.7375 24.7648 27.9159 24.0512 27.9159C23.2037 27.9159 22.5347 27.6483 22.044 27.1131C21.598 26.5778 21.3304 25.8196 21.3304 24.8829C21.3304 23.9016 21.5534 23.1434 22.044 22.6082C22.5347 22.0729 23.2483 21.8053 24.1404 21.8053C24.8986 21.8053 25.4785 21.9837 25.8799 22.3405C26.3259 22.6974 26.549 23.2326 26.5936 23.857H25.4339C25.3893 23.5448 25.2555 23.2772 25.0324 23.0988C24.8094 22.9204 24.5418 22.8312 24.1404 22.8312C23.6051 22.8312 23.2037 22.965 22.9361 23.3218C22.6685 23.634 22.5347 24.1247 22.5347 24.7937C22.5347 25.4181 22.6685 25.9088 22.9361 26.221C23.2037 26.5778 23.5605 26.7562 24.0958 26.7562C24.4526 26.7562 24.7648 26.667 24.9878 26.4886C25.2109 26.3102 25.3447 26.0426 25.4339 25.6858H26.5936V25.775ZM28.7345 27.7375V21.9391H29.9388V27.7375H28.7345ZM32.3028 27.7375V21.9391H33.5516L35.9156 25.9088V21.9391H37.0753V27.7375H35.8264L33.4624 23.7678V27.7375H32.3028ZM43.5873 27.0685C43.3643 27.3807 43.1413 27.5591 42.8737 27.6929C42.6061 27.8267 42.2492 27.8713 41.8924 27.8713C41.0896 27.8713 40.4205 27.6037 39.9299 27.0239C39.4392 26.444 39.1716 25.7304 39.1716 24.7937C39.1716 23.857 39.4392 23.1434 39.9299 22.6082C40.4205 22.0283 41.0896 21.7607 41.937 21.7607C42.6507 21.7607 43.2305 21.9391 43.7211 22.2959C44.1672 22.6528 44.4348 23.0988 44.524 23.7232H43.3197C43.2305 23.411 43.0967 23.188 42.8737 23.0542C42.6507 22.9204 42.3384 22.8312 41.9816 22.8312C41.491 22.8312 41.1342 23.0096 40.8665 23.3664C40.5543 23.7232 40.4205 24.2139 40.4205 24.8383C40.4205 25.4627 40.5543 25.9534 40.8665 26.3102C41.1788 26.667 41.5802 26.8454 42.0708 26.8454C42.4723 26.8454 42.7845 26.7116 43.0075 26.5332C43.2751 26.3102 43.4089 25.998 43.4535 25.5966H42.16V24.6153H44.5686V27.7375H43.7211L43.5873 27.0685ZM57.5481 25.775C57.5035 26.3994 57.2359 26.9346 56.7899 27.3361C56.3438 27.7375 55.7194 27.9159 55.0057 27.9159C54.1583 27.9159 53.4892 27.6483 52.9986 27.1131C52.5526 26.5778 52.2849 25.8196 52.2849 24.8829C52.2849 23.9016 52.508 23.1434 52.9986 22.6082C53.4892 22.0729 54.1583 21.8053 55.0949 21.8053C55.8532 21.8053 56.433 21.9837 56.8345 22.3405C57.2805 22.6974 57.5035 23.2326 57.5481 23.857H56.3884C56.3438 23.5448 56.21 23.2772 55.987 23.0988C55.764 22.9204 55.4964 22.8312 55.0949 22.8312C54.5597 22.8312 54.1583 22.965 53.8907 23.3218C53.623 23.634 53.4892 24.1247 53.4892 24.7937C53.4892 25.4181 53.623 25.9088 53.8907 26.221C54.1583 26.5778 54.5151 26.7562 55.0503 26.7562C55.4072 26.7562 55.7194 26.667 55.9424 26.4886C56.1654 26.3102 56.2992 26.0426 56.3884 25.6858H57.5481V25.775ZM59.6445 27.7375V21.9391H60.8487V26.667H63.6587V27.7375H59.6445ZM64.7292 21.9391H65.9335V25.552C65.9335 25.998 66.0227 26.3102 66.2011 26.5332C66.3795 26.7116 66.6471 26.8454 67.0486 26.8454C67.45 26.8454 67.7176 26.7562 67.896 26.5332C68.0744 26.3102 68.1636 25.998 68.1636 25.552V21.9391H69.3679V25.6858C69.3679 26.3994 69.1449 26.9346 68.7435 27.3361C68.3421 27.6929 67.7622 27.9159 67.0486 27.9159C66.2903 27.9159 65.7105 27.7375 65.3536 27.3361C64.9522 26.9346 64.7292 26.3994 64.7292 25.6858V21.9391ZM72.847 27.7375V23.0096H71.152V21.9837H75.7462V23.0096H74.0512V27.7821H72.847V27.7375ZM82.392 25.775C82.3474 26.3994 82.0798 26.9346 81.6338 27.3361C81.1877 27.7375 80.5633 27.9159 79.805 27.9159C78.9576 27.9159 78.2885 27.6483 77.7979 27.1131C77.3073 26.5778 77.0843 25.8196 77.0843 24.8829C77.0843 23.9016 77.3073 23.1434 77.7979 22.6082C78.2885 22.0729 79.0022 21.8053 79.8943 21.8053C80.6525 21.8053 81.2323 21.9837 81.6338 22.3405C82.0798 22.6974 82.3028 23.2326 82.3474 23.857H81.1877C81.1431 23.5448 81.0093 23.2772 80.7863 23.0988C80.5633 22.9204 80.2511 22.8312 79.8943 22.8312C79.4036 22.8312 78.9576 22.965 78.69 23.3218C78.4223 23.634 78.2885 24.1247 78.2885 24.7937C78.2885 25.4181 78.4223 25.9088 78.69 26.221C78.9576 26.5778 79.359 26.7562 79.8497 26.7562C80.2065 26.7562 80.5187 26.667 80.7417 26.4886C80.9647 26.3102 81.0985 26.0426 81.1877 25.6858H82.392V25.775ZM84.5776 27.7375V21.9391H85.7819V24.1247H88.1458V21.9391H89.3501V27.7375H88.1458V25.1505H85.7819V27.7375H84.5776Z" fill="black"/>
</g>
<defs>
<clipPath id="clip0">
<rect width="100" height="28.04" fill="white" transform="translate(0.5)"/>
</clipPath>
</defs>
</svg>
