<svg width="120" height="32" viewBox="0 0 120 32" fill="none" xmlns="http://www.w3.org/2000/svg">
<g clip-path="url(#clip0)">
<path d="M26.2441 3.54297H29.981V7.28048H26.2441V3.54297Z" fill="#BD0027"/>
<path d="M26.2441 10.1322V27.052H29.9809V10.1322H26.2441ZM0 10.0438H3.98109L7.30382 22.7428H7.36979L10.56 10.0436H14.3442L17.4039 22.7428H17.4698L20.9238 10.0436H24.7407L19.4101 27.0515H15.5606L12.4032 14.4189H12.3367L9.21146 27.0516H5.26396L0 10.0438ZM32.0483 10.0438H35.5682V13.3348H35.6341C36.0619 11.524 38.2991 9.58372 40.603 9.58372C41.4573 9.58372 41.6878 9.64902 42.0167 9.68126V13.3008C41.4907 13.2348 40.9318 13.1373 40.4047 13.1373C37.838 13.1373 35.7988 15.2099 35.7988 18.9596V27.0519H32.0484L32.0483 10.0438ZM53.7347 17.0519C53.6024 14.6826 51.9905 12.5453 49.4572 12.5453C46.8575 12.5453 45.0819 14.5185 44.9837 17.0517L53.7347 17.0519ZM44.9836 19.5186C44.9836 22.1829 46.4315 24.5527 49.5565 24.5527C51.7281 24.5527 53.0441 23.599 53.7018 21.7229H57.2546C56.4321 25.4404 53.2741 27.5125 49.5565 27.5125C44.2265 27.5125 41.2332 23.7955 41.2332 18.5649C41.2332 13.729 44.3912 9.58372 49.4572 9.58372C54.8202 9.58372 58.1095 14.4191 57.4853 19.5186H44.9836ZM70.8428 15.735C70.5468 13.6624 69.0331 12.5452 66.9599 12.5452C65.0191 12.5452 62.2882 13.5635 62.2882 18.7293C62.2882 21.5579 63.539 24.5525 66.7952 24.5525C68.9667 24.5525 70.4804 23.1034 70.8428 20.6702H74.5921C73.9019 25.0784 71.1711 27.5129 66.7952 27.5129C61.4658 27.5129 58.5377 23.73 58.5377 18.7293C58.5377 13.5965 61.3345 9.58359 66.9276 9.58359C70.8751 9.58359 74.2303 11.5568 74.5921 15.735H70.8428ZM87.1602 18.5317C86.0094 19.289 84.1997 19.2554 82.5543 19.5512C80.9428 19.8142 79.4951 20.406 79.4951 22.381C79.4951 24.0589 81.6335 24.5525 82.9489 24.5525C84.5939 24.5525 87.16 23.6977 87.16 21.3284L87.1602 18.5317ZM90.9106 23.2705C90.9106 24.1905 91.1087 24.5524 91.7995 24.5524C92.0288 24.5524 92.3254 24.5524 92.7201 24.4865V27.0851C92.1607 27.2828 90.977 27.5127 90.3511 27.5127C88.8379 27.5127 87.7524 26.9874 87.4571 25.4401C85.9758 26.888 83.5744 27.5127 81.567 27.5127C78.5078 27.5127 75.7447 25.8684 75.7447 22.5445C75.7447 18.3017 79.1332 17.6116 82.2912 17.248C84.9886 16.7549 87.3907 17.0516 87.3907 14.8477C87.3907 12.9056 85.3839 12.545 83.8702 12.545C81.7647 12.545 80.2839 13.3998 80.1198 15.2424H76.37C76.6322 10.8666 80.3492 9.58359 84.1009 9.58359C87.4237 9.58359 90.9106 10.9319 90.9106 14.5188V23.2705ZM93.9697 10.0438H97.4902V13.3348H97.556C97.9844 11.524 100.222 9.58372 102.525 9.58372C103.38 9.58372 103.61 9.64902 103.939 9.68126V13.3008C103.413 13.2348 102.853 13.1373 102.327 13.1373C99.761 13.1373 97.7214 15.2099 97.7214 18.9596V27.0519H93.9697V10.0438ZM111.611 24.5527C114.966 24.5527 116.38 21.4934 116.38 18.532C116.38 14.7814 114.571 12.5453 111.677 12.5453C108.156 12.5453 106.906 15.6698 106.906 18.7296C106.906 21.6571 108.353 24.5527 111.611 24.5527H111.611ZM120 27.0517H116.447V24.7492H116.38C115.394 26.6911 113.255 27.5125 111.116 27.5125C105.754 27.5125 103.155 23.5314 103.155 18.4336C103.155 12.2811 106.808 9.58372 110.525 9.58372C112.663 9.58372 115.032 10.3732 116.184 12.2477H116.249V3.5625H120V27.0517Z" fill="#43557E"/>
</g>
<defs>
<clipPath id="clip0">
<rect width="120" height="31.056" fill="white"/>
</clipPath>
</defs>
</svg>
